<svg xmlns="http://www.w3.org/2000/svg" xmlns:xlink="http://www.w3.org/1999/xlink" width="500" zoomAndPan="magnify" viewBox="0 0 375 374.999991" height="500" preserveAspectRatio="xMidYMid meet" version="1.0"><defs><g/></defs><g fill="#ffffff" fill-opacity="1"><g transform="translate(5.786266, 187.776184)"><g><path d="M 16.640625 1 C 24.796875 1 30.519531 -3.800781 31.398438 -11.359375 L 25 -12.238281 C 24.320312 -7.757812 21.078125 -4.878906 16.71875 -4.878906 C 11.4375 -4.878906 8.078125 -8.519531 8.039062 -14.238281 C 8.039062 -20 11.078125 -23.636719 15.878906 -23.636719 C 19.597656 -23.636719 22.078125 -21.238281 22.796875 -17.398438 L 29.039062 -18.957031 C 28.039062 -25.398438 22.878906 -29.476562 15.878906 -29.476562 C 6.878906 -29.476562 1.199219 -23.558594 1.199219 -14.238281 C 1.199219 -4.917969 7.199219 1 16.640625 1 Z M 16.640625 1 "/></g></g></g><g fill="#ffffff" fill-opacity="1"><g transform="translate(37.863081, 187.776184)"><g><path d="M 2.199219 0 L 20.878906 0 L 20.878906 -5.878906 L 9.039062 -5.878906 L 9.039062 -28.476562 L 2.199219 -28.476562 Z M 2.199219 0 "/></g></g></g><g fill="#ffffff" fill-opacity="1"><g transform="translate(59.34095, 187.776184)"><g><path d="M 2.199219 0 L 9.039062 0 L 9.039062 -28.476562 L 2.199219 -28.476562 Z M 2.199219 0 "/></g></g></g><g fill="#ffffff" fill-opacity="1"><g transform="translate(70.579837, 187.776184)"><g><path d="M 2.199219 0 L 8.640625 0 L 8.640625 -20.238281 L 8.71875 -20.238281 L 20.320312 0 L 28.359375 0 L 28.359375 -28.476562 L 21.878906 -28.476562 L 21.878906 -8.199219 L 21.796875 -8.199219 L 10.199219 -28.476562 L 2.199219 -28.476562 Z M 2.199219 0 "/></g></g></g><g fill="#ffffff" fill-opacity="1"><g transform="translate(101.136797, 187.776184)"><g><path d="M 2.199219 0 L 9.039062 0 L 9.039062 -28.476562 L 2.199219 -28.476562 Z M 2.199219 0 "/></g></g></g><g fill="#ffffff" fill-opacity="1"><g transform="translate(112.375684, 187.776184)"><g><path d="M 16.640625 1 C 24.796875 1 30.519531 -3.800781 31.398438 -11.359375 L 25 -12.238281 C 24.320312 -7.757812 21.078125 -4.878906 16.71875 -4.878906 C 11.4375 -4.878906 8.078125 -8.519531 8.039062 -14.238281 C 8.039062 -20 11.078125 -23.636719 15.878906 -23.636719 C 19.597656 -23.636719 22.078125 -21.238281 22.796875 -17.398438 L 29.039062 -18.957031 C 28.039062 -25.398438 22.878906 -29.476562 15.878906 -29.476562 C 6.878906 -29.476562 1.199219 -23.558594 1.199219 -14.238281 C 1.199219 -4.917969 7.199219 1 16.640625 1 Z M 16.640625 1 "/></g></g></g><g fill="#ffffff" fill-opacity="1"><g transform="translate(144.452498, 187.776184)"><g><path d="M 0.199219 0 L 7.359375 0 L 9.199219 -5.601562 L 20.160156 -5.601562 L 22 0 L 29.15625 0 L 18.878906 -28.476562 L 10.519531 -28.476562 Z M 10.4375 -10.4375 L 14.640625 -23.078125 L 14.71875 -23.078125 L 18.917969 -10.4375 Z M 10.4375 -10.4375 "/></g></g></g><g fill="#ffffff" fill-opacity="1"><g transform="translate(173.809578, 187.776184)"><g><path d="M 16.957031 1 C 26.519531 1 32.757812 -5.039062 32.757812 -14.238281 C 32.757812 -23.4375 26.519531 -29.476562 16.957031 -29.476562 C 7.441406 -29.476562 1.199219 -23.4375 1.199219 -14.238281 C 1.199219 -5.039062 7.441406 1 16.957031 1 Z M 16.957031 -4.878906 C 11.558594 -4.878906 8.039062 -8.597656 8.039062 -14.238281 C 8.039062 -19.917969 11.558594 -23.636719 16.957031 -23.636719 C 22.398438 -23.636719 25.917969 -19.917969 25.917969 -14.238281 C 25.917969 -8.597656 22.398438 -4.878906 16.957031 -4.878906 Z M 16.957031 -4.878906 "/></g></g></g><g fill="#ffffff" fill-opacity="1"><g transform="translate(207.766188, 187.776184)"><g><path d="M 2.199219 0 L 13.917969 0 C 23.796875 0 29.316406 -5.078125 29.316406 -14.238281 C 29.316406 -23.398438 23.796875 -28.476562 13.917969 -28.476562 L 2.199219 -28.476562 Z M 8.839844 -5.480469 L 8.839844 -23.039062 L 13.917969 -23.039062 C 19.398438 -23.039062 22.480469 -19.917969 22.480469 -14.238281 C 22.480469 -8.597656 19.398438 -5.480469 13.917969 -5.480469 Z M 8.839844 -5.480469 "/></g></g></g><g fill="#ffffff" fill-opacity="1"><g transform="translate(238.283138, 187.776184)"><g><path d="M 16.957031 1 C 26.519531 1 32.757812 -5.039062 32.757812 -14.238281 C 32.757812 -23.4375 26.519531 -29.476562 16.957031 -29.476562 C 7.441406 -29.476562 1.199219 -23.4375 1.199219 -14.238281 C 1.199219 -5.039062 7.441406 1 16.957031 1 Z M 16.957031 -4.878906 C 11.558594 -4.878906 8.039062 -8.597656 8.039062 -14.238281 C 8.039062 -19.917969 11.558594 -23.636719 16.957031 -23.636719 C 22.398438 -23.636719 25.917969 -19.917969 25.917969 -14.238281 C 25.917969 -8.597656 22.398438 -4.878906 16.957031 -4.878906 Z M 16.957031 -4.878906 "/></g></g></g><g fill="#ffffff" fill-opacity="1"><g transform="translate(272.239771, 187.776184)"><g><path d="M 2.199219 0 L 8.640625 0 L 8.640625 -20.238281 L 8.71875 -20.238281 L 20.320312 0 L 28.359375 0 L 28.359375 -28.476562 L 21.878906 -28.476562 L 21.878906 -8.199219 L 21.796875 -8.199219 L 10.199219 -28.476562 L 2.199219 -28.476562 Z M 2.199219 0 "/></g></g></g><g fill="#ffffff" fill-opacity="1"><g transform="translate(302.79673, 187.776184)"><g><path d="M 9.121094 0 L 15.960938 0 L 15.960938 -22.636719 L 24.476562 -22.636719 L 24.476562 -28.476562 L 0.601562 -28.476562 L 0.601562 -22.636719 L 9.121094 -22.636719 Z M 9.121094 0 "/></g></g></g><g fill="#ffffff" fill-opacity="1"><g transform="translate(327.874235, 187.776184)"><g><path d="M 16.957031 1 C 26.519531 1 32.757812 -5.039062 32.757812 -14.238281 C 32.757812 -23.4375 26.519531 -29.476562 16.957031 -29.476562 C 7.441406 -29.476562 1.199219 -23.4375 1.199219 -14.238281 C 1.199219 -5.039062 7.441406 1 16.957031 1 Z M 16.957031 -4.878906 C 11.558594 -4.878906 8.039062 -8.597656 8.039062 -14.238281 C 8.039062 -19.917969 11.558594 -23.636719 16.957031 -23.636719 C 22.398438 -23.636719 25.917969 -19.917969 25.917969 -14.238281 C 25.917969 -8.597656 22.398438 -4.878906 16.957031 -4.878906 Z M 16.957031 -4.878906 "/></g></g></g></svg>